<?xml version="1.0" standalone="no"?>
<!DOCTYPE svg PUBLIC "-//W3C//DTD SVG 20010904//EN"
 "http://www.w3.org/TR/2001/REC-SVG-20010904/DTD/svg10.dtd">
<svg version="1.0" xmlns="http://www.w3.org/2000/svg"
 width="1000.000000pt" height="1080.000000pt" viewBox="0 0 1000.000000 1080.000000"
 preserveAspectRatio="xMidYMid meet">

<g transform="translate(0.000000,1080.000000) scale(0.100000,-0.100000)"
fill="#000000" stroke="none">
<path d="M3486 9785 c-22 -33 -20 -67 6 -123 17 -35 23 -67 24 -122 0 -41 -1
-79 -4 -83 -2 -5 -16 2 -30 15 -14 13 -22 16 -18 8 5 -8 -2 -3 -15 11 -38 42
-97 81 -110 73 -8 -4 -9 -3 -5 4 13 21 -42 32 -155 32 l-109 0 0 27 c0 29 -46
97 -61 88 -5 -4 -9 -1 -9 5 0 16 -63 40 -103 40 -33 0 -77 -30 -46 -30 11 -1
10 -3 -2 -10 -12 -7 -15 -31 -17 -116 -3 -175 -25 -226 -96 -222 l-40 3 -12
-83 c-7 -45 -19 -93 -27 -105 -7 -12 -13 -32 -12 -44 1 -12 -2 -20 -7 -17 -5
3 -7 11 -5 17 4 14 -50 40 -64 31 -5 -3 -8 -2 -7 3 2 5 -15 30 -36 56 -30 36
-44 46 -60 42 -12 -3 -15 -2 -9 1 9 4 1 20 -24 52 -20 26 -42 52 -47 57 -6 6
-12 17 -13 25 -1 8 -9 35 -18 59 -9 24 -22 77 -30 117 -15 77 -29 114 -45 114
-5 0 -7 -8 -4 -17 2 -10 -1 -7 -8 5 -10 21 -17 23 -52 17 -23 -3 -52 -16 -66
-28 -14 -13 -19 -15 -11 -4 12 15 12 17 -3 11 -27 -10 -36 -38 -36 -112 0 -38
-7 -91 -15 -117 -8 -27 -11 -53 -8 -58 3 -6 1 -7 -4 -4 -6 4 -14 0 -17 -9 -9
-23 -8 -26 7 -18 6 4 3 -2 -7 -14 -23 -26 -34 -29 -16 -4 7 9 2 5 -11 -9 -45
-50 -57 -67 -51 -74 4 -3 -1 -3 -9 0 -9 3 -22 -1 -29 -10 -11 -13 -10 -15 6
-9 15 5 16 4 4 -4 -8 -6 -17 -9 -21 -7 -3 3 -26 -5 -50 -18 -47 -23 -100 -26
-379 -18 -83 2 -133 -2 -180 -14 -88 -22 -150 -46 -150 -57 0 -5 -4 -7 -9 -3
-10 6 -31 -25 -31 -44 0 -6 8 -11 18 -11 13 0 14 -2 3 -9 -10 -7 8 -29 73 -92
48 -46 92 -85 97 -86 5 -1 5 1 -1 4 -11 5 -4 23 10 23 5 0 7 -10 5 -22 -5 -25
32 -71 48 -61 6 4 8 0 4 -10 -3 -9 -1 -19 5 -23 6 -4 8 -3 5 2 -3 6 -1 16 4
24 7 11 8 7 5 -13 -5 -30 13 -84 23 -68 3 5 7 -15 8 -45 l2 -54 -32 0 c-31 -1
-97 -47 -97 -69 0 -6 -5 -13 -12 -17 -7 -5 -9 -2 -5 9 4 11 2 14 -8 10 -8 -3
-12 -10 -8 -16 3 -5 2 -7 -4 -4 -9 6 -131 -15 -166 -29 -37 -14 -27 -55 32
-124 l29 -34 -4 31 c-2 18 0 34 4 37 4 3 7 -14 6 -37 -2 -52 28 -101 58 -94
11 3 18 3 15 0 -3 -3 21 -19 54 -35 44 -22 65 -39 77 -64 15 -33 15 -40 -11
-147 -15 -62 -30 -131 -33 -154 -8 -52 2 -97 19 -86 8 5 8 2 -1 -9 -11 -14
-11 -21 4 -43 10 -15 23 -24 31 -21 8 3 12 2 9 -3 -16 -25 140 -50 211 -33 24
5 40 6 37 1 -3 -5 6 -9 19 -9 27 0 44 -35 22 -44 -23 -8 -95 -165 -95 -206 0
-53 20 -70 83 -70 38 0 48 3 37 10 -11 8 -8 9 13 4 21 -5 37 -1 59 16 17 13
28 16 24 9 -5 -9 -3 -9 6 1 7 9 28 26 46 39 18 12 30 26 27 31 -3 5 0 12 6 16
8 4 9 3 5 -4 -10 -17 -2 -15 36 7 18 11 67 29 108 40 54 15 81 28 97 48 12 15
19 31 16 36 -3 6 -1 7 5 3 7 -4 22 13 39 46 16 28 52 77 80 108 29 31 50 60
45 65 -4 5 -2 5 4 2 11 -6 58 36 50 44 -3 3 3 5 12 6 9 1 44 5 78 9 107 12
306 -40 501 -131 50 -24 95 -40 99 -37 4 4 4 2 0 -5 -3 -6 1 -14 11 -17 10 -3
51 -42 91 -86 40 -44 79 -80 85 -80 7 0 -7 18 -29 40 -32 30 -38 40 -26 45 8
3 17 3 20 0 3 -3 0 -5 -6 -5 -6 0 4 -17 23 -37 19 -20 32 -40 30 -44 -8 -11
33 -41 46 -33 7 4 10 3 6 -3 -9 -14 19 -37 34 -27 7 4 9 3 6 -3 -4 -6 2 -18
13 -28 11 -10 21 -15 21 -12 1 4 2 11 3 16 0 5 4 13 8 16 4 4 5 -4 3 -17 -3
-17 2 -31 17 -44 22 -19 22 -19 8 1 -14 18 -14 19 2 6 10 -7 15 -17 12 -22
-10 -16 7 -33 18 -18 8 11 9 10 4 -3 -7 -23 3 -50 16 -42 5 3 9 0 7 -7 -3 -24
1 -40 9 -36 4 3 8 -5 8 -16 2 -31 59 -189 66 -182 3 3 3 -6 0 -21 -3 -19 -1
-25 6 -20 7 4 10 2 7 -6 -3 -7 -1 -33 4 -58 5 -27 9 511 10 1367 1 1387 1
1412 -18 1423 -35 18 -77 12 -95 -15z m31 -18 c-22 -23 -37 -25 -37 -6 0 6 4
8 9 5 5 -3 14 1 21 9 7 8 16 15 21 15 4 0 -2 -10 -14 -23z m-573 -32 c11 -8
16 -15 10 -15 -5 0 -18 7 -28 15 -11 8 -16 15 -10 15 5 0 18 -7 28 -15z m543
-27 c-3 -8 -6 -5 -6 6 -1 11 2 17 5 13 3 -3 4 -12 1 -19z m-1190 -50 c-3 -8
-6 -5 -6 6 -1 11 2 17 5 13 3 -3 4 -12 1 -19z m-147 -2 c0 -3 -4 -8 -10 -11
-5 -3 -10 -1 -10 4 0 6 5 11 10 11 6 0 10 -2 10 -4z m117 -18 c-3 -8 -6 -5 -6
6 -1 11 2 17 5 13 3 -3 4 -12 1 -19z m1028 -57 c3 -5 2 -12 -3 -15 -5 -3 -9 1
-9 9 0 17 3 19 12 6z m25 -26 c0 -2 -10 -9 -22 -15 -22 -11 -22 -10 -4 4 21
17 26 19 26 11z m-473 -47 c-3 -7 -5 -2 -5 12 0 14 2 19 5 13 2 -7 2 -19 0
-25z m587 -27 c-5 -6 -24 10 -35 32 -10 20 -9 20 14 -3 13 -14 23 -27 21 -29z
m-594 -39 c-6 -2 -10 -11 -10 -19 0 -9 -2 -14 -5 -11 -4 3 -3 18 1 33 5 20 9
23 15 13 5 -7 4 -14 -1 -16z m-470 -18 c0 -2 -8 0 -19 5 -10 6 -22 7 -26 3 -5
-4 -5 -1 -1 6 5 9 12 9 27 2 10 -6 19 -13 19 -16z m11 -51 c13 -16 12 -17 -3
-4 -14 11 -18 11 -18 1 0 -8 -3 -11 -6 -7 -5 5 3 27 10 27 2 0 10 -8 17 -17z
m346 1 c-3 -3 -12 -4 -19 -1 -8 3 -5 6 6 6 11 1 17 -2 13 -5z m-687 -64 c-27
-20 -48 -16 -30 5 6 8 18 11 26 8 8 -3 14 1 14 8 0 7 3 9 7 5 4 -4 -3 -16 -17
-26z m386 -16 c1 -9 0 -13 -4 -10 -3 4 -7 14 -8 22 -1 9 0 13 4 10 3 -4 7 -14
8 -22z m275 -17 c-10 -9 -11 -8 -5 6 3 10 9 15 12 12 3 -3 0 -11 -7 -18z
m-191 -22 c0 -1 -6 -7 -13 -13 -10 -8 -13 -6 -13 7 0 11 6 17 13 14 7 -3 13
-6 13 -8z m-530 -10 c-10 -12 -10 -15 0 -15 8 0 11 -2 8 -5 -3 -3 -13 -3 -22
1 -15 6 -15 7 1 20 24 18 28 17 13 -1z m-630 -59 c0 -2 -9 -6 -20 -9 -11 -3
-18 -1 -14 4 5 9 34 13 34 5z m-60 -27 c19 -7 16 -7 -13 -3 -26 3 -37 2 -32
-5 3 -6 1 -11 -4 -11 -12 0 -14 13 -4 23 8 9 21 8 53 -4z m-97 -24 c-3 -9 -8
-14 -10 -11 -3 3 -2 9 2 15 9 16 15 13 8 -4z m-12 -72 c-12 -20 -14 -14 -5 12
4 9 9 14 11 11 3 -2 0 -13 -6 -23z m72 -89 c26 -35 16 -30 -24 12 -18 20 -25
31 -14 24 11 -6 28 -23 38 -36z m100 -31 c-3 -7 -6 -13 -8 -13 -2 0 -5 6 -8
13 -3 8 1 14 8 14 7 0 11 -6 8 -14z m-40 -18 c-3 -9 -8 -14 -10 -11 -3 3 -2 9
2 15 9 16 15 13 8 -4z m77 -62 c12 10 12 9 1 -6 -11 -13 -17 -15 -27 -6 -8 6
-14 17 -14 23 0 6 6 3 14 -6 10 -14 15 -15 26 -5z m48 -49 c0 -17 -3 -22 -8
-13 -5 6 -6 18 -3 26 8 19 11 16 11 -13z m-91 -221 c-15 -4 -16 -7 -5 -21 12
-15 11 -16 -4 -3 -20 15 -15 32 10 30 15 -1 15 -2 -1 -6z m-232 -72 c-3 -6 3
-14 12 -20 10 -6 13 -11 6 -11 -6 0 -15 5 -18 10 -4 6 -12 7 -18 3 -7 -4 -6 0
2 10 14 18 26 23 16 8z m16 -56 c5 3 6 -1 3 -9 -3 -9 -1 -16 5 -16 6 0 11 -6
11 -12 -1 -7 -12 1 -25 17 -14 17 -25 35 -25 40 0 6 5 2 11 -8 6 -9 14 -15 20
-12z m194 -183 c-3 -3 -11 0 -18 7 -9 10 -8 11 6 5 10 -3 15 -9 12 -12z m78
-59 c-3 -7 -6 -13 -8 -13 -2 0 -5 6 -8 13 -3 8 1 14 8 14 7 0 11 -6 8 -14z m8
-36 c-10 -9 -11 -8 -5 6 3 10 9 15 12 12 3 -3 0 -11 -7 -18z m1079 -234 c0 -5
-14 -8 -31 -9 -20 -1 -26 2 -17 7 16 11 48 12 48 2z m-143 -48 c0 -8 -4 -12
-9 -9 -5 3 -6 10 -3 15 9 13 12 11 12 -6z m403 -5 c18 -12 2 -12 -25 0 -13 6
-15 9 -5 9 8 0 22 -4 30 -9z m106 -32 c-9 -5 -23 -5 -32 0 -12 6 -7 9 16 9 23
0 28 -3 16 -9z m-586 -32 c0 -2 -8 -10 -17 -17 -16 -13 -17 -12 -4 4 13 16 21
21 21 13z m730 -42 c0 -2 -9 0 -20 6 -11 6 -20 13 -20 16 0 2 9 0 20 -6 11 -6
20 -13 20 -16z m37 -10 c-3 -3 -12 -4 -19 -1 -8 3 -5 6 6 6 11 1 17 -2 13 -5z
m-864 -41 c-6 -15 -4 -16 8 -6 12 10 15 8 15 -7 0 -15 -4 -16 -18 -9 -19 10
-23 21 -11 32 11 11 13 8 6 -10z m948 -7 c-1 -3 7 -14 18 -25 10 -10 21 -25
23 -32 4 -12 8 -11 23 1 17 14 17 14 4 -8 l-14 -23 -17 23 c-10 13 -27 32 -38
44 -11 11 -17 23 -14 27 8 7 16 3 15 -7z m49 10 c0 -3 -4 -8 -10 -11 -5 -3
-10 -1 -10 4 0 6 5 11 10 11 6 0 10 -2 10 -4z m-1039 -133 c-8 -15 -10 -15
-11 -2 0 17 10 32 18 25 2 -3 -1 -13 -7 -23z m-26 -23 c-3 -5 -16 -10 -28 -9
-20 1 -20 2 3 9 14 4 26 8 28 9 2 1 0 -3 -3 -9z m1210 1 c3 -5 0 -13 -6 -17
-8 -5 -9 -3 -4 6 6 10 4 12 -9 7 -10 -4 -15 -3 -11 3 8 13 22 13 30 1z m45 5
c0 -2 -8 -10 -17 -17 -16 -13 -17 -12 -4 4 13 16 21 21 21 13z m-1695 -46 c-5
21 -4 22 5 7 12 -19 4 -41 -11 -32 -5 4 -14 16 -20 28 -9 19 -8 19 11 -3 l21
-25 -6 25z m290 0 c4 -6 -1 -7 -11 -3 -13 5 -15 3 -9 -7 5 -9 4 -11 -4 -6 -6
4 -9 12 -6 17 8 12 22 12 30 -1z m1399 -18 c3 -5 -1 -9 -9 -9 -8 0 -12 4 -9 9
3 4 7 8 9 8 2 0 6 -4 9 -8z m34 -31 c-7 -9 -13 -18 -15 -20 -1 -2 -1 5 0 16 0
11 7 20 14 20 10 0 10 -4 1 -16z m126 -76 c-4 -8 -11 -15 -16 -15 -6 0 -5 6 2
15 7 8 14 15 16 15 2 0 1 -7 -2 -15z m-1839 -15 c-3 -5 -11 -10 -16 -10 -6 0
-7 5 -4 10 3 6 11 10 16 10 6 0 7 -4 4 -10z m1838 -65 c-3 -9 -8 -14 -10 -11
-3 3 -2 9 2 15 9 16 15 13 8 -4z m39 -130 c3 -13 1 -22 -3 -19 -9 5 -13 44 -5
44 2 0 6 -11 8 -25z m26 -76 c-3 -8 -7 -3 -11 10 -4 17 -3 21 5 13 5 -5 8 -16
6 -23z"/>
<path d="M3495 9481 c-3 -5 -2 -12 3 -15 5 -3 9 1 9 9 0 17 -3 19 -12 6z"/>
<path d="M3586 6768 c-6 -73 -6 -98 2 -98 4 0 8 34 10 75 2 86 -4 100 -12 23z"/>
<path d="M6280 5430 c0 -385 2 -700 4 -700 2 0 20 7 39 15 49 20 110 19 135
-2 17 -16 21 -38 31 -174 6 -86 16 -174 23 -195 13 -37 15 -39 58 -40 66 -1
64 0 123 -54 73 -67 135 -96 268 -125 62 -14 126 -33 143 -43 49 -29 75 -92
86 -212 5 -58 25 -165 45 -240 108 -410 127 -490 128 -544 l2 -59 -111 -2
c-62 -2 -121 -6 -133 -10 -24 -7 -26 -29 -6 -65 8 -14 14 -45 15 -69 0 -47 9
-36 -138 -171 -23 -22 -48 -40 -56 -40 -7 0 -32 -22 -54 -49 -27 -32 -57 -55
-86 -66 -44 -17 -46 -17 -79 4 -43 26 -87 27 -118 2 -22 -17 -26 -18 -53 -4
-38 20 -80 11 -146 -32 -30 -19 -69 -38 -87 -41 l-33 -6 0 -507 0 -507 38 -21
c20 -12 62 -31 92 -42 30 -12 86 -46 124 -76 38 -30 77 -55 88 -55 36 0 75 51
87 116 21 112 33 137 74 157 45 21 46 37 10 103 -15 27 -42 80 -60 117 -29 59
-39 71 -78 88 -60 26 -75 51 -75 121 0 56 1 59 38 82 53 33 65 50 113 151 24
49 61 109 82 133 33 35 187 152 200 152 5 0 33 -67 47 -111 13 -43 32 -63 83
-84 87 -36 210 -5 251 64 10 17 22 65 27 106 18 163 45 211 138 241 99 32 106
54 71 223 -25 116 -25 166 -2 211 27 55 71 72 167 66 44 -3 101 -9 127 -12 47
-6 48 -6 62 28 8 18 20 79 27 135 l13 101 -36 42 c-43 50 -77 119 -106 216
-34 111 -40 115 -152 117 -62 1 -105 7 -124 17 -44 23 -69 62 -69 109 0 36 7
48 55 99 73 77 81 93 73 154 -7 50 -6 51 59 147 81 121 153 191 195 191 26 0
36 -9 70 -59 62 -92 73 -97 198 -104 240 -14 315 -63 377 -244 44 -130 75
-166 176 -204 96 -36 159 -20 176 47 18 70 -25 244 -112 449 -54 128 -94 165
-210 196 -97 25 -97 25 -220 165 -72 81 -133 118 -233 139 -55 11 -88 26 -134
59 -115 81 -187 107 -434 160 -212 45 -304 92 -349 178 -24 46 -16 80 47 192
72 131 89 170 89 207 0 58 -76 74 -210 44 -36 -8 -119 -17 -185 -21 l-120 -6
-112 55 c-82 41 -131 73 -183 121 -64 59 -141 111 -237 160 l-33 17 0 -701z"/>
<path d="M2853 5245 c-14 -10 -20 -22 -17 -33 4 -12 3 -13 -3 -4 -8 10 -21 6
-60 -20 -76 -50 -89 -59 -73 -51 13 6 13 5 0 -13 -22 -29 -24 -30 -17 -11 8
21 4 21 -34 2 -16 -9 -27 -20 -24 -26 4 -5 3 -9 -2 -8 -25 4 -34 -2 -28 -21 4
-12 2 -20 -5 -20 -6 0 -8 5 -5 10 3 6 3 10 -2 10 -4 -1 -29 -34 -55 -74 -52
-81 -99 -113 -147 -101 -14 3 -35 6 -46 7 -11 0 -14 2 -7 5 10 4 10 9 -2 22
-9 10 -20 41 -26 71 -11 59 -24 80 -49 80 -24 0 -65 -45 -56 -61 5 -7 4 -10
-3 -6 -12 8 -48 -63 -57 -116 -5 -27 -3 -44 9 -62 13 -20 16 -45 14 -113 l-3
-87 32 -3 c35 -4 80 -43 89 -78 3 -13 11 -21 17 -17 5 3 7 1 3 -5 -3 -6 1 -39
9 -74 22 -93 19 -129 -15 -193 -16 -31 -30 -67 -30 -79 1 -27 26 -60 40 -51 6
3 10 3 9 -2 -3 -20 2 -27 11 -13 9 13 10 13 10 -1 0 -8 11 -25 25 -37 14 -12
25 -32 25 -45 0 -13 6 -29 13 -36 10 -10 9 -11 -3 -7 -21 9 -104 -145 -95
-176 4 -16 3 -19 -3 -10 -13 20 -22 -33 -22 -137 0 -69 -6 -102 -30 -171 -40
-114 -39 -133 10 -182 28 -29 40 -35 40 -24 0 11 -5 14 -12 10 -7 -4 -8 -3 -4
5 6 9 11 9 22 1 11 -10 17 -5 30 23 13 27 22 34 43 33 19 0 28 -6 29 -19 1
-19 1 -19 -13 -1 -19 25 -19 15 0 -30 9 -20 19 -34 24 -32 5 3 8 -2 7 -12 -1
-13 7 -17 32 -16 17 0 32 -4 32 -9 0 -5 -10 -7 -22 -4 -18 5 -14 -2 17 -28 45
-39 83 -45 108 -17 9 10 35 58 58 107 22 50 51 104 65 121 13 18 24 47 26 66
2 31 4 34 27 31 14 -2 35 -6 46 -7 11 -2 29 1 40 7 18 9 18 8 7 -6 -8 -9 -10
-22 -6 -29 4 -7 -2 -4 -14 6 -12 11 -22 16 -22 13 0 -12 71 -60 98 -65 15 -3
66 -6 114 -6 79 -1 89 1 113 24 l27 25 -7 230 c-7 249 -21 497 -31 532 -4 13
-11 20 -17 16 -5 -3 -7 -1 -4 4 4 6 -4 35 -18 65 -28 61 -31 114 -10 183 8 27
11 53 8 58 -3 6 -2 7 4 4 18 -11 53 125 53 209 0 98 -19 142 -95 227 -30 34
-55 69 -55 77 0 10 -3 11 -8 4 -4 -7 -7 19 -7 56 0 59 -4 72 -24 94 -28 30
-66 34 -98 11z m72 -14 c-3 -6 -11 -11 -16 -11 -5 0 -4 6 3 14 14 16 24 13 13
-3z m-35 -5 c0 -2 -8 -10 -17 -17 -16 -13 -17 -12 -4 4 13 16 21 21 21 13z
m-269 -179 c-10 -9 -11 -8 -5 6 3 10 9 15 12 12 3 -3 0 -11 -7 -18z m-346 2
c11 -16 1 -19 -13 -3 -7 8 -8 14 -3 14 5 0 13 -5 16 -11z m703 -29 c-2 -5 2
-10 7 -11 6 0 15 -5 22 -11 7 -5 16 -7 21 -4 5 3 22 -9 38 -27 16 -17 20 -24
8 -14 -11 9 -24 14 -28 10 -4 -5 -7 -3 -6 2 5 21 -1 25 -21 15 -32 -18 -56
-20 -56 -4 0 9 4 10 12 4 6 -5 16 -5 25 0 13 8 13 10 -1 10 -19 0 -42 24 -32
33 9 10 13 9 11 -3z m-432 -42 c-9 -13 -24 -34 -33 -48 -17 -23 -17 -24 0 -17
24 9 21 2 -6 -16 -35 -23 -31 3 10 54 18 23 33 46 33 52 0 6 3 7 6 4 4 -4 -1
-17 -10 -29z m-314 0 c-7 -7 -19 -13 -27 -14 -13 -2 -14 1 -4 12 6 7 15 11 20
8 5 -3 9 0 9 7 0 7 3 9 7 6 4 -4 1 -13 -5 -19z m77 -61 c1 -5 -3 -5 -9 -2 -5
3 -10 16 -9 28 0 21 1 21 9 2 5 -11 9 -24 9 -28z m761 3 c0 -5 -5 -10 -11 -10
-5 0 -7 5 -4 10 3 6 8 10 11 10 2 0 4 -4 4 -10z m-813 -32 c-3 -8 -6 -5 -6 6
-1 11 2 17 5 13 3 -3 4 -12 1 -19z m850 8 c0 -15 -21 -16 -34 -1 -4 4 -3 5 4
1 6 -3 14 -2 18 4 8 14 12 13 12 -4z m-951 -46 c0 -12 -4 -16 -9 -11 -5 5 -6
14 -3 20 10 15 12 14 12 -9z m158 -266 c3 -8 2 -12 -4 -9 -6 3 -10 10 -10 16
0 14 7 11 14 -7z m733 -156 c-3 -8 -6 -5 -6 6 -1 11 2 17 5 13 3 -3 4 -12 1
-19z m36 -152 c-3 -4 -9 -2 -14 5 -13 22 -11 31 5 17 8 -7 12 -17 9 -22z
m-767 -132 c18 -15 18 -15 -2 -5 -12 6 -24 7 -28 4 -3 -3 -6 -1 -6 5 0 16 12
15 36 -4z m19 -270 c-8 -16 -15 -23 -15 -16 0 13 22 53 27 48 2 -2 -3 -16 -12
-32z m22 -26 c-3 -7 -5 -2 -5 12 0 14 2 19 5 13 2 -7 2 -19 0 -25z m780 -80
c-3 -7 -5 -2 -5 12 0 14 2 19 5 13 2 -7 2 -19 0 -25z m0 -75 c-3 -10 -5 -4 -5
12 0 17 2 24 5 18 2 -7 2 -21 0 -30z m-860 -160 c-3 -10 -5 -4 -5 12 0 17 2
24 5 18 2 -7 2 -21 0 -30z m-16 -50 c-12 -20 -14 -14 -5 12 4 9 9 14 11 11 3
-2 0 -13 -6 -23z m875 -21 c-18 -16 -18 -16 -6 6 6 13 14 21 18 18 3 -4 -2
-14 -12 -24z m-451 -46 c-15 -12 -26 -27 -22 -32 3 -6 2 -16 -2 -23 -7 -10 -9
-9 -14 3 -3 8 3 26 13 39 11 13 17 26 15 29 -2 2 6 5 18 5 19 2 19 0 -8 -21z
m-406 -83 c14 11 14 10 2 -6 -10 -13 -17 -15 -27 -6 -8 6 -14 14 -14 17 0 3 5
1 12 -6 9 -9 15 -9 27 1z m196 -63 c3 -6 -1 -7 -9 -4 -18 7 -21 14 -7 14 6 0
13 -4 16 -10z m133 -25 c-3 -3 -9 2 -12 12 -6 14 -5 15 5 6 7 -7 10 -15 7 -18z
m-35 -10 c-3 -9 -8 -14 -10 -11 -3 3 -2 9 2 15 9 16 15 13 8 -4z m7 -34 c-6
-13 -20 -20 -33 -20 l-22 2 22 4 c12 2 25 13 28 24 4 11 9 18 12 16 2 -3 0
-15 -7 -26z"/>
<path d="M0 400 l0 -400 5000 0 5000 0 0 400 0 400 -5000 0 -5000 0 0 -400z
m2192 123 c23 -20 23 -57 1 -74 -15 -11 -16 -11 -5 1 27 31 11 72 -33 83 -19
4 -19 5 -1 6 11 0 28 -6 38 -16z m-69 -8 c-3 -9 -8 -14 -10 -11 -3 3 -2 9 2
15 9 16 15 13 8 -4z m-1760 -114 c22 -61 43 -108 47 -104 4 4 24 56 45 116 21
59 42 107 47 107 11 0 9 -5 -42 -149 -23 -64 -44 -107 -53 -109 -15 -3 -17 0
-67 143 -15 44 -31 88 -36 99 -5 13 -3 17 6 14 8 -2 32 -55 53 -117z m517 89
c0 -23 4 -30 20 -30 11 0 20 -4 20 -10 0 -5 -10 -10 -21 -10 -20 0 -21 -4 -17
-71 3 -55 8 -74 23 -85 23 -17 14 -29 -13 -15 -11 6 -22 25 -26 42 -10 51 -7
209 4 209 6 0 10 -13 10 -30z m515 16 c25 -11 33 -19 29 -30 -7 -19 -5 -19
-40 -1 -36 18 -55 19 -78 2 -28 -21 -9 -45 49 -62 87 -25 108 -74 54 -127 -29
-29 -33 -30 -90 -25 -68 6 -72 8 -64 29 5 13 12 14 40 5 50 -15 100 1 100 33
0 16 -8 28 -25 36 -87 40 -105 51 -108 67 -14 70 53 106 133 73z m105 -16 c0
-25 4 -30 25 -30 16 0 25 -6 25 -15 0 -9 -9 -15 -25 -15 -24 0 -25 -3 -25 -60
0 -55 2 -62 25 -72 14 -6 25 -15 25 -20 0 -18 -31 -20 -55 -4 -24 16 -25 20
-25 131 0 96 3 115 15 115 10 0 15 -10 15 -30z m482 -32 l3 -62 36 32 c20 18
45 32 55 32 14 0 9 -9 -21 -40 l-39 -40 42 -60 c40 -57 41 -60 20 -60 -16 0
-32 14 -53 45 -16 25 -33 45 -37 45 -5 0 -8 -20 -8 -45 0 -38 -3 -45 -20 -45
-19 0 -20 7 -20 130 0 122 1 130 20 130 16 0 19 -8 22 -62z m193 30 c1 -20 -2
-24 -11 -17 -8 7 -14 6 -17 -3 -3 -7 -6 2 -6 20 -1 27 3 33 17 30 11 -2 17
-13 17 -30z m-44 -35 c13 -16 12 -17 -3 -4 -17 13 -22 21 -14 21 2 0 10 -8 17
-17z m-1502 -19 c12 -15 21 -40 21 -55 0 -29 0 -29 -65 -29 -72 0 -83 -12 -44
-51 17 -17 30 -20 65 -16 43 4 59 -5 28 -17 -45 -17 -106 3 -123 41 -45 98 56
206 118 127z m191 16 c17 -11 10 -13 -40 -10 -47 2 -75 -28 -75 -80 0 -55 26
-80 82 -80 27 0 42 -4 38 -10 -9 -15 -78 -12 -102 5 -50 35 -50 135 0 170 24
17 74 20 97 5z m265 -13 c20 -16 28 -35 32 -69 5 -42 3 -50 -25 -78 -41 -41
-83 -41 -124 0 -28 28 -30 36 -25 78 9 82 84 119 142 69z m85 7 c0 -14 2 -14
22 0 24 17 38 20 38 9 0 -5 -14 -16 -30 -25 -29 -17 -30 -19 -30 -93 0 -43 -4
-75 -10 -75 -6 0 -10 40 -10 100 0 60 4 100 10 100 6 0 10 -7 10 -16z m537 1
c30 -21 44 -75 32 -120 -25 -88 -143 -88 -168 0 -20 72 20 135 84 135 17 0 40
-7 52 -15z m198 -5 c0 -10 -8 -14 -27 -12 -58 6 -91 -42 -67 -100 11 -28 36
-40 74 -35 12 1 20 -4 20 -13 0 -19 -48 -25 -85 -10 -63 26 -68 148 -6 179 31
15 91 9 91 -9z m5394 -83 c8 -26 17 -47 21 -47 4 0 13 21 21 47 8 25 20 48 27
51 8 2 4 -19 -12 -63 -36 -99 -36 -99 -72 0 -16 44 -20 65 -12 63 7 -3 19 -26
27 -51z m638 38 c2 -6 -9 -11 -23 -10 -39 0 -42 -23 -5 -36 34 -12 49 -43 31
-64 -13 -16 -38 -19 -64 -9 -27 10 -18 22 17 20 38 -1 43 19 8 37 -36 18 -48
42 -31 62 14 17 61 17 67 0z m333 -20 c0 -35 16 -47 26 -20 4 8 13 15 22 15
13 0 13 -3 -2 -19 -16 -18 -16 -21 -1 -50 19 -38 8 -40 -22 -3 l-22 27 -1 -27
c0 -16 -4 -28 -10 -28 -6 0 -10 30 -10 70 0 40 4 70 10 70 6 0 10 -16 10 -35z
m580 32 c0 -4 -34 -104 -45 -136 -3 -8 -8 -11 -11 -8 -8 7 38 147 48 147 4 0
8 -2 8 -3z m70 -57 c0 -33 4 -60 10 -60 6 0 10 -4 10 -10 0 -5 -13 -10 -30
-10 -16 0 -30 5 -30 10 0 6 5 10 10 10 6 0 10 20 10 45 0 38 -2 43 -17 38 -16
-6 -16 -4 1 15 29 34 36 27 36 -38z m90 0 c0 -33 4 -60 10 -60 6 0 10 -4 10
-10 0 -5 -13 -10 -30 -10 -16 0 -30 5 -30 10 0 6 5 10 10 10 6 0 10 20 10 45
0 38 -2 43 -17 38 -16 -6 -16 -4 1 15 29 34 36 27 36 -38z m120 41 c-5 -11
-15 -23 -20 -26 -6 -4 -1 -14 12 -25 20 -15 21 -21 10 -44 -11 -26 -34 -32
-66 -20 -28 11 -17 24 14 18 22 -5 31 -2 36 11 6 16 -3 28 -31 39 -6 2 -5 9 3
17 18 19 15 29 -8 29 -11 0 -20 5 -20 10 0 6 18 10 40 10 37 0 40 -2 30 -19z
m120 9 c0 -5 -11 -10 -25 -10 -14 0 -29 -8 -36 -21 -10 -19 -9 -20 11 -14 40
13 78 -43 48 -73 -30 -30 -88 1 -88 48 0 37 35 80 66 80 13 0 24 -4 24 -10z
m100 0 c0 -5 -11 -10 -25 -10 -32 0 -32 -16 -1 -24 27 -7 41 -35 31 -65 -7
-23 -37 -35 -65 -26 -31 10 -24 23 13 21 28 -1 32 2 32 24 0 21 -4 25 -30 24
-29 -1 -30 0 -27 32 4 31 7 34 38 34 19 0 34 -4 34 -10z m112 -42 c2 -29 2
-61 0 -70 -5 -22 -22 -24 -22 -3 0 10 -10 15 -30 15 -16 0 -30 3 -30 6 0 16
56 104 67 104 6 0 13 -22 15 -52z m118 33 c-5 -11 -15 -23 -21 -26 -6 -5 -2
-13 11 -22 42 -29 8 -82 -43 -69 -37 9 -34 27 3 20 22 -5 31 -2 36 11 6 16 -3
28 -31 39 -6 2 -5 9 3 17 18 19 15 29 -8 29 -11 0 -20 5 -20 10 0 6 18 10 40
10 37 0 40 -2 30 -19z m107 7 c14 -23 12 -106 -2 -118 -33 -27 -86 8 -70 46 4
11 7 27 6 37 -5 38 47 64 66 35z m-2047 -33 c9 -10 9 -15 1 -15 -15 0 -14 -57
2 -63 6 -2 9 -7 6 -11 -15 -17 -37 8 -41 47 -7 58 5 74 32 42z m360 0 c9 -10
9 -15 1 -15 -15 0 -14 -57 2 -63 6 -2 9 -7 6 -11 -15 -17 -37 8 -41 47 -7 58
5 74 32 42z m-532 -7 c23 -23 13 -38 -24 -38 -46 0 -41 -23 7 -30 27 -4 30 -7
16 -13 -28 -11 -44 -9 -61 9 -32 31 -14 84 29 84 12 0 26 -5 33 -12z m117 3
c3 -5 -9 -11 -27 -13 -28 -2 -33 -7 -33 -28 0 -21 5 -26 33 -28 36 -4 34 -22
-3 -22 -28 0 -55 24 -55 50 0 37 67 69 85 41z m169 -7 c21 -20 20 -43 -1 -66
-20 -22 -46 -23 -67 -2 -31 30 -9 84 34 84 10 0 26 -7 34 -16z m86 6 c0 -4 -7
-10 -15 -14 -9 -3 -15 -19 -15 -41 0 -19 -4 -35 -10 -35 -5 0 -10 22 -10 49 0
45 2 49 25 49 14 0 25 -4 25 -8z m274 -6 c21 -20 20 -43 -1 -66 -20 -22 -46
-23 -67 -2 -31 30 -9 84 34 84 10 0 26 -7 34 -16z m121 7 c3 -5 -9 -11 -27
-13 -28 -2 -33 -7 -33 -28 0 -21 5 -26 33 -28 36 -4 34 -22 -3 -22 -28 0 -55
24 -55 50 0 37 67 69 85 41z m242 2 c14 -6 10 -9 -17 -13 -29 -4 -35 -9 -35
-30 0 -21 5 -26 33 -28 36 -4 34 -22 -3 -22 -28 0 -55 24 -55 50 0 22 25 50
45 50 7 0 22 -3 32 -7z m107 -9 c21 -20 20 -43 -1 -66 -20 -22 -46 -23 -67 -2
-31 30 -9 84 34 84 10 0 26 -7 34 -16z m111 5 c3 -5 14 -3 25 3 28 18 50 -6
50 -53 0 -22 -4 -39 -10 -39 -5 0 -10 18 -10 41 0 33 -3 40 -17 37 -13 -2 -19
-14 -21 -41 -4 -50 -22 -47 -22 4 0 36 -2 40 -22 37 -19 -2 -24 -10 -26 -40
-5 -55 -22 -47 -22 10 l0 48 35 1 c19 1 37 -3 40 -8z m-325 -79 c0 -5 -4 -10
-10 -10 -5 0 -10 5 -10 10 0 6 5 10 10 10 6 0 10 -4 10 -10z"/>
<path d="M2150 500 c0 -5 5 -10 10 -10 6 0 10 5 10 10 0 6 -4 10 -10 10 -5 0
-10 -4 -10 -10z"/>
<path d="M536 418 c-28 -39 -21 -48 39 -48 59 0 67 9 45 51 -15 27 -64 25 -84
-3z"/>
<path d="M986 424 c-50 -50 -21 -144 44 -144 48 0 80 50 66 104 -13 53 -75 75
-110 40z"/>
<path d="M1616 408 c-32 -46 -8 -118 39 -118 28 0 55 34 55 70 0 36 -27 70
-55 70 -13 0 -31 -10 -39 -22z"/>
<path d="M9184 325 c-4 -9 -2 -21 4 -27 16 -16 47 -5 47 17 0 26 -42 34 -51
10z"/>
<path d="M9417 350 c-18 -29 -18 -30 2 -30 17 0 21 6 21 30 0 17 -1 30 -3 30
-1 0 -11 -13 -20 -30z"/>
<path d="M9642 373 c5 -26 38 -29 38 -4 0 15 -6 21 -21 21 -14 0 -19 -5 -17
-17z"/>
<path d="M9634 325 c-8 -21 10 -39 30 -32 22 9 20 24 -4 37 -16 9 -22 8 -26
-5z"/>
<path d="M7415 340 c-4 -6 5 -10 19 -10 14 0 26 5 26 10 0 6 -9 10 -19 10 -11
0 -23 -4 -26 -10z"/>
<path d="M7694 336 c-10 -26 4 -48 28 -44 17 2 23 10 23 28 0 18 -6 26 -23 28
-13 2 -25 -3 -28 -12z"/>
<path d="M8054 336 c-10 -26 4 -48 28 -44 17 2 23 10 23 28 0 18 -6 26 -23 28
-13 2 -25 -3 -28 -12z"/>
<path d="M8524 336 c-10 -26 4 -48 28 -44 17 2 23 10 23 28 0 18 -6 26 -23 28
-13 2 -25 -3 -28 -12z"/>
</g>
</svg>
