<?xml version="1.0" standalone="no"?>
<!DOCTYPE svg PUBLIC "-//W3C//DTD SVG 20010904//EN"
 "http://www.w3.org/TR/2001/REC-SVG-20010904/DTD/svg10.dtd">
<svg version="1.0" xmlns="http://www.w3.org/2000/svg"
 width="225.000000pt" height="225.000000pt" viewBox="0 0 225.000000 225.000000"
 preserveAspectRatio="xMidYMid meet">

<g transform="translate(0.000000,225.000000) scale(0.100000,-0.100000)"
fill="#000000" stroke="none">
<path d="M334 1921 c-17 -11 -36 -34 -43 -52 -8 -22 -11 -241 -11 -746 0 -782
-1 -766 59 -797 25 -14 79 -16 351 -16 l320 0 0 25 0 24 -318 3 c-252 2 -322
6 -335 17 -16 12 -17 77 -17 746 0 669 1 734 17 746 23 20 1035 25 1073 6 23
-11 25 -19 28 -85 l3 -72 29 0 c30 0 30 0 30 60 0 33 -6 76 -14 95 -28 66 -16
65 -608 65 -506 0 -535 -1 -564 -19z"/>
<path d="M687 1823 c-10 -9 -8 -41 2 -47 16 -10 41 5 41 24 0 10 -7 21 -16 24
-19 7 -19 7 -27 -1z"/>
<path d="M794 1815 c-15 -37 2 -45 95 -45 102 0 121 5 121 30 0 25 -19 30
-121 30 -70 0 -91 -3 -95 -15z"/>
<path d="M1133 1645 c-65 -28 -63 -9 -63 -690 0 -511 2 -621 14 -643 29 -56
36 -57 437 -57 358 0 368 1 396 21 54 40 53 23 53 677 0 676 2 660 -65 691
-28 14 -85 16 -387 16 -278 -1 -360 -4 -385 -15z m765 -57 c9 -9 12 -163 12
-629 0 -548 -2 -619 -16 -633 -13 -14 -61 -16 -373 -16 -293 0 -361 3 -377 14
-18 14 -19 34 -22 622 -2 534 -1 610 13 630 l15 24 368 0 c273 0 371 -3 380
-12z"/>
<path d="M1330 1534 c-11 -12 -10 -18 3 -32 16 -15 18 -15 34 0 13 14 14 20 3
32 -7 9 -16 16 -20 16 -4 0 -13 -7 -20 -16z"/>
<path d="M1452 1541 c-8 -5 -12 -17 -10 -27 3 -17 13 -19 78 -19 65 0 75 2 78
19 5 26 -15 36 -78 36 -30 0 -61 -4 -68 -9z"/>
<path d="M1492 473 c-7 -3 -18 -16 -23 -30 -13 -36 12 -73 49 -73 35 0 52 17
52 51 0 40 -41 67 -78 52z"/>
<path d="M862 548 c-6 -6 -12 -27 -12 -45 0 -26 6 -36 25 -45 51 -23 96 23 71
74 -13 26 -64 36 -84 16z"/>
</g>
</svg>
