<?xml version="1.0" standalone="no"?>
<!DOCTYPE svg PUBLIC "-//W3C//DTD SVG 20010904//EN"
 "http://www.w3.org/TR/2001/REC-SVG-20010904/DTD/svg10.dtd">
<svg version="1.0" xmlns="http://www.w3.org/2000/svg"
 width="416.000000pt" height="416.000000pt" viewBox="0 0 416.000000 416.000000"
 preserveAspectRatio="xMidYMid meet">

<g transform="translate(0.000000,416.000000) scale(0.100000,-0.100000)"
fill="#000000" stroke="none">
<path d="M1390 3788 c-26 -14 -57 -41 -75 -66 l-30 -44 -3 -201 c-2 -114 -7
-204 -13 -207 -14 -9 -14 -459 0 -473 14 -14 15 -174 1 -182 -6 -4 -10 -95
-10 -241 0 -149 4 -234 10 -234 7 0 10 -279 10 -818 l0 -819 23 -44 c13 -24
43 -57 66 -74 l43 -30 656 -3 c449 -2 669 0 694 8 48 14 94 53 118 101 20 37
20 70 20 1619 0 1436 -1 1584 -16 1613 -23 45 -53 76 -96 98 -35 18 -68 19
-695 19 l-659 0 -44 -22z m858 -85 c3 -10 -33 -13 -157 -13 -146 0 -182 5
-164 24 4 4 76 5 162 4 113 -2 155 -6 159 -15z m563 -132 l24 -19 0 -1472 0
-1472 -24 -19 c-22 -18 -49 -19 -718 -19 -434 0 -701 4 -713 10 -10 5 -23 24
-29 41 -15 44 -16 2875 -1 2916 6 15 18 34 27 41 13 9 172 12 714 12 671 0
698 -1 720 -19z"/>
</g>
</svg>
