<?xml version="1.0" standalone="no"?>
<!DOCTYPE svg PUBLIC "-//W3C//DTD SVG 20010904//EN"
 "http://www.w3.org/TR/2001/REC-SVG-20010904/DTD/svg10.dtd">
<svg version="1.0" xmlns="http://www.w3.org/2000/svg"
 width="210.000000pt" height="240.000000pt" viewBox="0 0 210.000000 240.000000"
 preserveAspectRatio="xMidYMid meet">

<g transform="translate(0.000000,240.000000) scale(0.100000,-0.100000)"
fill="#000000" stroke="none">
<path d="M890 2394 c-286 -21 -567 -100 -717 -202 -73 -50 -108 -89 -142 -162
l-26 -55 0 -775 0 -775 26 -55 c35 -75 68 -111 148 -164 376 -250 1223 -272
1665 -43 100 52 187 132 221 202 l25 54 0 781 0 781 -25 54 c-77 162 -337 290
-691 339 -112 16 -386 27 -484 20z m505 -169 c315 -56 513 -157 546 -277 78
-292 -799 -481 -1430 -308 -159 44 -307 134 -347 211 -45 89 17 189 163 262
116 58 241 93 443 122 126 19 499 13 625 -10z m-1196 -610 c58 -39 196 -94
302 -121 191 -48 287 -58 549 -58 211 0 263 3 374 23 181 32 284 63 406 124
58 28 108 53 113 55 4 2 7 -61 7 -140 0 -142 0 -145 -29 -190 -66 -104 -258
-190 -526 -234 -170 -29 -545 -26 -719 5 -219 39 -360 93 -453 175 -66 58 -73
82 -73 246 0 77 2 140 5 140 3 0 23 -11 44 -25z m10 -440 c183 -132 521 -203
901 -192 345 11 598 71 763 182 37 25 70 45 72 45 3 0 5 -68 5 -152 0 -144 -1
-153 -25 -194 -68 -116 -296 -210 -605 -249 -180 -23 -482 -16 -650 15 -230
42 -399 115 -480 207 l-40 46 0 163 c0 90 2 164 5 164 3 0 27 -16 54 -35z
m-16 -441 c73 -61 225 -122 393 -157 179 -38 333 -50 539 -44 329 10 592 75
756 187 32 22 61 40 64 40 9 0 5 -275 -5 -311 -37 -133 -315 -253 -668 -290
-157 -16 -445 -7 -592 19 -269 48 -474 147 -517 249 -13 33 -20 333 -7 333 3
0 20 -12 37 -26z"/>
<path d="M1672 1397 c-28 -29 -28 -57 -1 -91 40 -50 119 -21 119 44 0 63 -75
93 -118 47z"/>
<path d="M1676 954 c-27 -27 -31 -63 -9 -92 40 -55 123 -30 123 36 0 56 -77
94 -114 56z"/>
<path d="M1684 512 c-15 -10 -34 -47 -34 -67 0 -24 46 -65 73 -65 30 0 67 39
67 71 0 47 -68 86 -106 61z"/>
</g>
</svg>
